<svg xmlns="http://www.w3.org/2000/svg" version="1.1" xmlns:xlink="http://www.w3.org/1999/xlink" xmlns:svgjs="http://svgjs.com/svgjs" width="512" height="512" x="0" y="0" viewBox="0 0 510 510" style="enable-background:new 0 0 512 512" xml:space="preserve" class=""><g><g data-name="Layer 2"><path fill="#fff" d="M255 23c128.17.09 232 104.07 231.9 232.24a232.06 232.06 0 0 1-141.6 213.54c-118.22 49.51-254.19-6.2-303.7-124.42-49.29-117.7 5.7-253.12 123.1-303.14A230.54 230.54 0 0 1 255 23m0-23C114.17 0 0 114.17 0 255c0 140.83 114.17 255 255 255 140.83 0 255-114.17 255-255C510 114.17 395.83 0 255 0z" data-original="#007dc3" class=""></path><path fill="#fff" d="M293.05 253c4.13-6.77 7.87-12.89 11.6-19 2.73-4.49 5.36-9 8.22-13.45 3.81-5.87 10-6 14.31-.55a22.83 22.83 0 0 1 1.5 2.27q26.07 42.66 52.11 85.34c6.32 10.41 5.44 21.87-2.07 30.21-5.61 6.23-12.87 8.38-21 8.38H150.62c-9.71 0-17.91-2.91-22.78-11.9-4.72-8.71-3.2-16.89 2-25.1q42.69-67.82 85.16-135.83c8-12.71 19.75-12.77 27.77-.05q23.47 37.23 46.8 74.57c.91 1.49 1.96 2.91 3.48 5.11z" data-original="#007dc3" class=""></path></g></g></svg>